<svg width="186.000000" height="148.000000" viewBox="0 0 186 148" fill="none" xmlns="http://www.w3.org/2000/svg" xmlns:xlink="http://www.w3.org/1999/xlink">
	<desc>
			Created with Pixso.
	</desc>
	<defs/>
	<path id="Extra Skills" d="M74.36 5.52C74.36 6.15 73.81 6.66 73.15 6.66C72.49 6.66 71.94 6.15 71.94 5.52C71.94 4.9 72.49 4.38 73.15 4.38C73.81 4.38 74.36 4.9 74.36 5.52ZM59.78 8.34L57.88 8.34C57.74 7.14 56.67 6.43 55.17 6.43C53.56 6.43 52.54 7.25 52.54 8.37C52.54 9.62 53.9 10.1 54.92 10.36L56.2 10.7C57.86 11.1 59.96 12.02 59.96 14.38C59.96 16.59 58.19 18.21 55.12 18.21C52.19 18.21 50.35 16.75 50.22 14.38L52.2 14.38C52.32 15.8 53.59 16.48 55.11 16.48C56.79 16.48 58.01 15.64 58.01 14.36C58.01 13.2 56.93 12.73 55.53 12.37L53.98 11.94C51.88 11.37 50.57 10.3 50.57 8.49C50.57 6.23 52.59 4.72 55.21 4.72C57.88 4.72 59.73 6.25 59.78 8.34ZM9.72 18L1.43 18L1.43 4.9L9.64 4.9L9.64 6.6L3.41 6.6L3.41 10.59L9.21 10.59L9.21 12.29L3.41 12.29L3.41 16.29L9.72 16.29L9.72 18ZM64.08 18L62.17 18L62.17 4.9L64.08 4.9L64.08 12.33L64.25 12.33L68.16 8.18L70.45 8.18L66.47 12.39L70.72 18L68.37 18L65.03 13.56L64.08 14.51L64.08 18ZM76.67 4.9L78.58 4.9L78.58 18L76.67 18L76.67 4.9ZM81.15 4.9L83.06 4.9L83.06 18L81.15 18L81.15 4.9ZM24.62 8.18L26.64 8.18L26.64 9.71L24.62 9.71L24.62 15.11C24.62 16.22 25.18 16.42 25.8 16.42C26.11 16.42 26.34 16.36 26.47 16.34L26.82 17.92C26.59 18 26.18 18.12 25.58 18.12C24.07 18.15 22.71 17.29 22.71 15.51L22.71 9.71L21.27 9.71L21.27 8.18L22.71 8.18L22.71 5.83L24.62 5.83L24.62 8.18ZM30.66 18L28.74 18L28.74 8.18L30.59 8.18L30.59 9.74L30.7 9.74C31.05 8.68 32.04 8.03 33.19 8.03C33.43 8.03 33.81 8.05 34 8.08L34 9.9C33.85 9.86 33.4 9.79 33 9.79C31.65 9.79 30.66 10.71 30.66 12L30.66 18ZM41.33 16.65C40.97 17.39 40.05 18.21 38.43 18.21C36.56 18.21 35.11 17.15 35.11 15.22C35.11 12.99 37.02 12.51 38.88 12.29C40.64 12.08 41.36 12.09 41.36 11.4L41.36 11.35C41.36 10.24 40.73 9.6 39.49 9.6C38.21 9.6 37.49 10.27 37.21 10.96L35.41 10.56C36.05 8.77 37.69 8.05 39.47 8.05C41.03 8.05 43.28 8.62 43.28 11.47L43.28 18L41.41 18L41.41 16.65L41.33 16.65ZM89.27 8.05C91.39 8.05 92.59 9.05 92.99 10.57L91.25 10.88C91.03 10.22 90.48 9.56 89.29 9.56C88.21 9.56 87.39 10.1 87.39 10.85C87.39 11.52 87.86 11.88 88.93 12.14L90.49 12.5C92.29 12.91 93.18 13.77 93.18 15.16C93.18 16.94 91.53 18.19 89.17 18.19C86.96 18.19 85.51 17.22 85.19 15.48L87.04 15.2C87.27 16.16 88.01 16.65 89.15 16.65C90.4 16.65 91.22 16.06 91.22 15.3C91.22 14.69 90.77 14.26 89.83 14.05L88.17 13.69C86.33 13.28 85.48 12.35 85.48 10.96C85.48 9.22 87.06 8.05 89.27 8.05ZM11.55 8.18L13.64 8.18L15.81 12L17.99 8.18L20.09 8.18L17.02 13.09L20.11 18L18.02 18L15.81 14.33L13.6 18L11.51 18L14.56 13.09L11.55 8.18ZM74.1 18L72.19 18L72.19 8.18L74.1 8.18L74.1 18ZM36.99 15.25C36.99 16.19 37.76 16.68 38.85 16.68C40.44 16.68 41.36 15.62 41.36 14.45L41.36 13.19C41.09 13.46 39.62 13.63 39 13.71C37.89 13.86 36.99 14.22 36.99 15.25Z" fill="#2B2B2B" fill-opacity="1.000000" fill-rule="evenodd"/>
	<path id="Bootstrap, Materialize" d="M152.25 43.6C152.25 44.07 151.85 44.45 151.36 44.45C150.87 44.45 150.46 44.07 150.46 43.6C150.46 43.13 150.87 42.75 151.36 42.75C151.85 42.75 152.25 43.13 152.25 43.6ZM167.83 43.6C167.83 44.07 167.43 44.45 166.94 44.45C166.44 44.45 166.04 44.07 166.04 43.6C166.04 43.13 166.44 42.75 166.94 42.75C167.43 42.75 167.83 43.13 167.83 43.6ZM35.26 54L31.32 54L31.32 43.09L35.13 43.09C37.41 43.09 38.48 44.39 38.48 45.98C38.48 47.39 37.65 48.01 36.71 48.26L36.71 48.37C37.71 48.43 38.9 49.37 38.9 51.1C38.9 52.74 37.84 54 35.26 54ZM109.32 54L109.32 43.09L110.9 43.09L114.61 52.14L114.73 52.14L118.44 43.09L120.02 43.09L120.02 54L118.78 54L118.78 45.71L118.67 45.71L115.27 54L114.07 54L110.66 45.71L110.56 45.71L110.56 54L109.32 54ZM162.74 43.09L163.99 43.09L163.99 54L162.74 54L162.74 43.09ZM60.61 45.81L62.36 45.81L62.36 46.88L60.61 46.88L60.61 51.65C60.61 52.72 61.14 52.89 61.7 52.89C61.98 52.89 62.15 52.85 62.25 52.82L62.51 53.95C62.34 54.02 62.04 54.1 61.57 54.1C60.51 54.1 59.35 53.42 59.35 51.99L59.35 46.88L58.12 46.88L58.12 45.81L59.35 45.81L59.35 43.85L60.61 43.85L60.61 45.81ZM73.91 45.81L75.66 45.81L75.66 46.88L73.91 46.88L73.91 51.65C73.91 52.72 74.44 52.89 74.99 52.89C75.27 52.89 75.44 52.85 75.55 52.82L75.81 53.95C75.63 54.02 75.34 54.1 74.87 54.1C73.8 54.1 72.65 53.42 72.65 51.99L72.65 46.88L71.42 46.88L71.42 45.81L72.65 45.81L72.65 43.85L73.91 43.85L73.91 45.81ZM132.76 45.81L134.51 45.81L134.51 46.88L132.76 46.88L132.76 51.65C132.76 52.72 133.29 52.89 133.84 52.89C134.12 52.89 134.29 52.85 134.4 52.82L134.66 53.95C134.48 54.02 134.19 54.1 133.72 54.1C132.65 54.1 131.5 53.42 131.5 51.99L131.5 46.88L130.27 46.88L130.27 45.81L131.5 45.81L131.5 43.85L132.76 43.85L132.76 45.81ZM32.64 44.26L32.64 47.88L35.09 47.88C36.28 47.88 37.22 47.14 37.22 45.98C37.22 45.03 36.58 44.26 35.13 44.26L32.64 44.26ZM78.81 54L77.55 54L77.55 45.81L78.77 45.81L78.77 47.05L78.85 47.05C79.15 46.24 80 45.69 80.98 45.69C81.17 45.69 81.5 45.7 81.64 45.71L81.64 46.99C81.56 46.96 81.21 46.9 80.88 46.9C79.68 46.9 78.81 47.71 78.81 48.82L78.81 54ZM146.39 54L145.14 54L145.14 45.81L146.35 45.81L146.35 47.05L146.44 47.05C146.74 46.24 147.59 45.69 148.57 45.69C148.75 45.69 149.08 45.7 149.23 45.71L149.23 46.99C149.14 46.96 148.8 46.9 148.46 46.9C147.27 46.9 146.39 47.71 146.39 48.82L146.39 54ZM47.93 49.95C47.93 52.48 46.44 54.17 44.23 54.17C42.01 54.17 40.52 52.48 40.52 49.95C40.52 47.39 42.01 45.71 44.23 45.71C46.44 45.71 47.93 47.39 47.93 49.95ZM56.88 49.95C56.88 52.48 55.39 54.17 53.18 54.17C50.96 54.17 49.47 52.48 49.47 49.95C49.47 47.39 50.96 45.71 53.18 45.71C55.39 45.71 56.88 47.39 56.88 49.95ZM67.15 45.71C68.77 45.71 69.66 46.48 70.05 47.64L68.92 47.96C68.71 47.4 68.25 46.79 67.15 46.79C66.15 46.79 65.41 47.3 65.41 48.01C65.41 48.64 65.85 48.96 66.81 49.2L68.03 49.5C69.49 49.86 70.2 50.57 70.2 51.71C70.2 53.13 68.91 54.17 67.01 54.17C65.33 54.17 64.19 53.42 63.89 52.04L65.09 51.74C65.31 52.61 65.95 53.06 66.98 53.06C68.16 53.06 68.9 52.48 68.9 51.78C68.9 51.22 68.51 50.82 67.69 50.63L66.32 50.31C64.82 49.96 64.15 49.2 64.15 48.07C64.15 46.69 65.43 45.71 67.15 45.71ZM87.97 52.89C87.71 53.42 86.97 54.19 85.54 54.19C83.99 54.19 82.75 53.27 82.75 51.67C82.75 49.8 84.41 49.46 85.92 49.26C87.42 49.07 88.03 49.13 88.03 48.52L88.03 48.48C88.03 47.43 87.47 46.81 86.31 46.81C85.11 46.81 84.46 47.45 84.18 48.05L82.98 47.62C83.62 46.13 85.03 45.71 86.26 45.71C87.31 45.71 89.29 46 89.29 48.6L89.29 54L88.03 54L88.03 52.89L87.97 52.89ZM92.85 57.06L91.59 57.06L91.59 45.81L92.81 45.81L92.81 47.11L92.96 47.11C93.23 46.69 93.72 45.71 95.32 45.71C97.39 45.71 98.82 47.35 98.82 49.93C98.82 52.53 97.39 54.17 95.34 54.17C93.77 54.17 93.23 53.19 92.96 52.74L92.85 52.74L92.85 57.06ZM127.33 52.89C127.07 53.42 126.32 54.19 124.9 54.19C123.34 54.19 122.1 53.27 122.1 51.67C122.1 49.8 123.76 49.46 125.28 49.26C126.77 49.07 127.39 49.13 127.39 48.52L127.39 48.48C127.39 47.43 126.82 46.81 125.66 46.81C124.47 46.81 123.81 47.45 123.53 48.05L122.34 47.62C122.98 46.13 124.38 45.71 125.62 45.71C126.67 45.71 128.65 46 128.65 48.6L128.65 54L127.39 54L127.39 52.89L127.33 52.89ZM143.09 52.1C142.71 53.34 141.5 54.17 139.83 54.17C137.47 54.17 136.02 52.48 136.02 49.97C136.02 47.45 137.49 45.71 139.7 45.71C141.41 45.71 143.22 46.75 143.22 49.8L143.22 50.33L137.28 50.33C137.34 52.08 138.36 53.04 139.83 53.04C140.82 53.04 141.56 52.61 141.88 51.76L143.09 52.1ZM159.12 52.89C158.86 53.42 158.11 54.19 156.69 54.19C155.13 54.19 153.89 53.27 153.89 51.67C153.89 49.8 155.55 49.46 157.07 49.26C158.56 49.07 159.18 49.13 159.18 48.52L159.18 48.48C159.18 47.43 158.61 46.81 157.45 46.81C156.25 46.81 155.6 47.45 155.32 48.05L154.13 47.62C154.77 46.13 156.17 45.71 157.41 45.71C158.46 45.71 160.44 46 160.44 48.6L160.44 54L159.18 54L159.18 52.89L159.12 52.89ZM184.66 52.1C184.28 53.34 183.06 54.17 181.4 54.17C179.04 54.17 177.59 52.48 177.59 49.97C177.59 47.45 179.06 45.71 181.27 45.71C182.98 45.71 184.79 46.75 184.79 49.8L184.79 50.33L178.85 50.33C178.91 52.08 179.93 53.04 181.4 53.04C182.39 53.04 183.13 52.61 183.45 51.76L184.66 52.1ZM151.98 54L150.72 54L150.72 45.81L151.98 45.81L151.98 54ZM167.55 54L166.29 54L166.29 45.81L167.55 45.81L167.55 54ZM176.03 54L169.62 54L169.62 53.04L174.27 47.07L174.27 46.99L169.77 46.99L169.77 45.81L175.88 45.81L175.88 46.81L171.37 52.74L171.37 52.82L176.03 52.82L176.03 54ZM41.78 49.95C41.78 51.59 42.54 53.04 44.23 53.04C45.91 53.04 46.68 51.59 46.68 49.95C46.68 48.31 45.91 46.84 44.23 46.84C42.54 46.84 41.78 48.31 41.78 49.95ZM50.73 49.95C50.73 51.59 51.49 53.04 53.18 53.04C54.86 53.04 55.63 51.59 55.63 49.95C55.63 48.31 54.86 46.84 53.18 46.84C51.49 46.84 50.73 48.31 50.73 49.95ZM95.17 46.84C93.64 46.84 92.83 48.07 92.83 49.9C92.83 51.76 93.66 53.04 95.17 53.04C96.75 53.04 97.56 51.65 97.56 49.9C97.56 48.18 96.77 46.84 95.17 46.84ZM139.7 46.84C138.27 46.84 137.36 47.97 137.28 49.25L141.94 49.25C141.94 47.86 141.07 46.84 139.7 46.84ZM181.27 46.84C179.83 46.84 178.93 47.97 178.85 49.25L183.51 49.25C183.51 47.86 182.64 46.84 181.27 46.84ZM32.64 49.03L32.64 52.82L35.26 52.82C36.98 52.82 37.65 52.06 37.65 51.1C37.65 49.99 36.75 49.03 35.32 49.03L32.64 49.03ZM84.01 51.74C84.01 52.61 84.73 53.06 85.73 53.06C87.22 53.06 88.03 52.06 88.03 51.03L88.03 49.88C87.82 50.14 86.39 50.29 85.86 50.35C84.88 50.48 84.01 50.78 84.01 51.74ZM123.36 51.74C123.36 52.61 124.09 53.06 125.09 53.06C126.58 53.06 127.39 52.06 127.39 51.03L127.39 49.88C127.18 50.14 125.75 50.29 125.22 50.35C124.23 50.48 123.36 50.78 123.36 51.74ZM155.15 51.74C155.15 52.61 155.88 53.06 156.88 53.06C158.37 53.06 159.18 52.06 159.18 51.03L159.18 49.88C158.96 50.14 157.54 50.29 157 50.35C156.02 50.48 155.15 50.78 155.15 51.74ZM101.25 52.5L102.61 52.5L102.52 53.08C102.34 54.29 101.8 55.93 101.54 56.66L100.58 56.66C100.72 55.98 101.03 54.54 101.18 53.1L101.25 52.5Z" fill="#767676" fill-opacity="1.000000" fill-rule="evenodd"/>
	<rect id="Icons" width="15.000000" height="15.000000" transform="translate(0.000000 41.000000)" fill="#FFFFFF" fill-opacity="0"/>
	<rect id="Icons" width="15.000000" height="15.000000" transform="translate(0.000000 41.000000)" fill="#FFFFFF" fill-opacity="0"/>
	<rect id="Icons" width="15.000000" height="15.000000" transform="translate(0.000000 41.000000)" fill="#FFFFFF" fill-opacity="0"/>
	<rect id="Icons" width="15.000000" height="15.000000" transform="translate(0.000000 41.000000)" fill="#FFFFFF" fill-opacity="0"/>
	<rect id="Rectangle 22" x="0.500000" y="41.500000" width="9.000000" height="9.000000" stroke="#FFB400" stroke-opacity="1.000000" stroke-width="1.000000"/>
	<rect id="Rectangle 23" x="5.500000" y="46.500000" width="9.000000" height="9.000000" stroke="#FFB400" stroke-opacity="1.000000" stroke-width="1.000000"/>
	<rect id="Icons" width="15.000000" height="15.000000" transform="translate(0.000000 41.000000)" fill="#FFFFFF" fill-opacity="0"/>
	<rect id="Icons" width="15.000000" height="15.000000" transform="translate(0.000000 41.000000)" fill="#FFFFFF" fill-opacity="0"/>
	<rect id="Rectangle 22" x="0.500000" y="41.500000" width="9.000000" height="9.000000" stroke="#FFB400" stroke-opacity="1.000000" stroke-width="1.000000"/>
	<rect id="Rectangle 23" x="5.500000" y="46.500000" width="9.000000" height="9.000000" stroke="#FFB400" stroke-opacity="1.000000" stroke-width="1.000000"/>
	<path id="Stylus, Sass, Less" d="M38.56 74.81L37.28 74.81C37.15 73.74 36.15 73.11 34.83 73.11C33.38 73.11 32.42 73.88 32.42 74.92C32.42 76.09 33.72 76.52 34.53 76.73L35.64 77.03C36.77 77.33 38.71 77.99 38.71 80.03C38.71 81.8 37.28 83.19 34.77 83.19C32.42 83.19 30.98 81.97 30.85 80.18L32.21 80.18C32.32 81.42 33.47 82 34.77 82C36.28 82 37.43 81.2 37.43 80.01C37.43 78.93 36.41 78.52 35.26 78.2L33.92 77.82C32.21 77.33 31.14 76.45 31.14 74.98C31.14 73.15 32.79 71.94 34.87 71.94C36.98 71.94 38.5 73.17 38.56 74.81ZM90.46 74.81L89.19 74.81C89.06 73.74 88.05 73.11 86.74 73.11C85.29 73.11 84.33 73.88 84.33 74.92C84.33 76.09 85.63 76.52 86.44 76.73L87.55 77.03C88.67 77.33 90.61 77.99 90.61 80.03C90.61 81.8 89.19 83.19 86.67 83.19C84.33 83.19 82.88 81.97 82.75 80.18L84.11 80.18C84.22 81.42 85.37 82 86.67 82C88.18 82 89.34 81.2 89.34 80.01C89.34 78.93 88.31 78.52 87.16 78.2L85.82 77.82C84.11 77.33 83.05 76.45 83.05 74.98C83.05 73.15 84.69 71.94 86.78 71.94C88.89 71.94 90.41 73.17 90.46 74.81ZM54.52 72.09L55.77 72.09L55.77 83L54.52 83L54.52 72.09ZM131.73 83L125.34 83L125.34 72.09L126.66 72.09L126.66 81.82L131.73 81.82L131.73 83ZM42.52 74.81L44.27 74.81L44.27 75.88L42.52 75.88L42.52 80.65C42.52 81.72 43.06 81.89 43.61 81.89C43.89 81.89 44.06 81.85 44.17 81.82L44.42 82.95C44.25 83.02 43.95 83.1 43.48 83.1C42.42 83.1 41.26 82.42 41.26 80.99L41.26 75.88L40.03 75.88L40.03 74.81L41.26 74.81L41.26 72.85L42.52 72.85L42.52 74.81ZM69.69 74.71C71.31 74.71 72.19 75.48 72.59 76.64L71.46 76.96C71.24 76.4 70.79 75.79 69.69 75.79C68.69 75.79 67.94 76.3 67.94 77.01C67.94 77.64 68.38 77.96 69.35 78.2L70.56 78.5C72.02 78.86 72.73 79.57 72.73 80.71C72.73 82.13 71.44 83.17 69.54 83.17C67.87 83.17 66.72 82.42 66.43 81.04L67.62 80.74C67.85 81.61 68.49 82.06 69.52 82.06C70.69 82.06 71.44 81.48 71.44 80.78C71.44 80.22 71.05 79.82 70.22 79.63L68.86 79.31C67.36 78.96 66.69 78.2 66.69 77.07C66.69 75.69 67.96 74.71 69.69 74.71ZM97.45 81.89C97.2 82.42 96.45 83.19 95.02 83.19C93.47 83.19 92.23 82.27 92.23 80.67C92.23 78.8 93.89 78.46 95.41 78.26C96.9 78.07 97.52 78.13 97.52 77.52L97.52 77.48C97.52 76.43 96.95 75.81 95.79 75.81C94.59 75.81 93.94 76.45 93.66 77.05L92.46 76.62C93.11 75.13 94.51 74.71 95.75 74.71C96.79 74.71 98.77 75 98.77 77.6L98.77 83L97.52 83L97.52 81.89L97.45 81.89ZM103.97 74.71C105.59 74.71 106.48 75.48 106.87 76.64L105.74 76.96C105.52 76.4 105.07 75.79 103.97 75.79C102.97 75.79 102.22 76.3 102.22 77.01C102.22 77.64 102.66 77.96 103.63 78.2L104.85 78.5C106.31 78.86 107.02 79.57 107.02 80.71C107.02 82.13 105.73 83.17 103.82 83.17C102.15 83.17 101 82.42 100.71 81.04L101.91 80.74C102.13 81.61 102.77 82.06 103.8 82.06C104.97 82.06 105.72 81.48 105.72 80.78C105.72 80.22 105.33 79.82 104.51 79.63L103.14 79.31C101.64 78.96 100.97 78.2 100.97 77.07C100.97 75.69 102.25 74.71 103.97 74.71ZM111.81 74.71C113.43 74.71 114.32 75.48 114.71 76.64L113.58 76.96C113.36 76.4 112.91 75.79 111.81 75.79C110.81 75.79 110.07 76.3 110.07 77.01C110.07 77.64 110.5 77.96 111.47 78.2L112.69 78.5C114.15 78.86 114.86 79.57 114.86 80.71C114.86 82.13 113.57 83.17 111.67 83.17C109.99 83.17 108.85 82.42 108.55 81.04L109.75 80.74C109.97 81.61 110.61 82.06 111.64 82.06C112.82 82.06 113.56 81.48 113.56 80.78C113.56 80.22 113.17 79.82 112.35 79.63L110.98 79.31C109.48 78.96 108.81 78.2 108.81 77.07C108.81 75.69 110.09 74.71 111.81 74.71ZM140.3 81.1C139.92 82.34 138.7 83.17 137.04 83.17C134.67 83.17 133.23 81.48 133.23 78.97C133.23 76.45 134.7 74.71 136.91 74.71C138.62 74.71 140.43 75.75 140.43 78.8L140.43 79.33L134.49 79.33C134.55 81.08 135.57 82.04 137.04 82.04C138.03 82.04 138.77 81.61 139.08 80.76L140.3 81.1ZM145.24 74.71C146.86 74.71 147.75 75.48 148.14 76.64L147.01 76.96C146.8 76.4 146.34 75.79 145.24 75.79C144.24 75.79 143.5 76.3 143.5 77.01C143.5 77.64 143.94 77.96 144.9 78.2L146.12 78.5C147.58 78.86 148.29 79.57 148.29 80.71C148.29 82.13 147 83.17 145.1 83.17C143.42 83.17 142.28 82.42 141.98 81.04L143.18 80.74C143.4 81.61 144.04 82.06 145.07 82.06C146.25 82.06 146.99 81.48 146.99 80.78C146.99 80.22 146.6 79.82 145.78 79.63L144.41 79.31C142.91 78.96 142.24 78.2 142.24 77.07C142.24 75.69 143.52 74.71 145.24 74.71ZM153.08 74.71C154.71 74.71 155.59 75.48 155.98 76.64L154.85 76.96C154.64 76.4 154.18 75.79 153.08 75.79C152.08 75.79 151.34 76.3 151.34 77.01C151.34 77.64 151.78 77.96 152.74 78.2L153.96 78.5C155.42 78.86 156.13 79.57 156.13 80.71C156.13 82.13 154.84 83.17 152.94 83.17C151.26 83.17 150.12 82.42 149.82 81.04L151.02 80.74C151.24 81.61 151.89 82.06 152.91 82.06C154.09 82.06 154.83 81.48 154.83 80.78C154.83 80.22 154.44 79.82 153.62 79.63L152.25 79.31C150.75 78.96 150.08 78.2 150.08 77.07C150.08 75.69 151.36 74.71 153.08 74.71ZM49.39 84.19C48.91 85.46 48.11 86.06 46.98 86.06C46.55 86.06 46.19 85.98 46.06 85.91L46.38 84.81C47.3 85.04 47.86 84.92 48.32 83.68L48.55 83.04L45.53 74.81L46.89 74.81L49.15 81.33L49.24 81.33L51.49 74.81L52.86 74.81L49.39 84.19ZM61.12 81.89C62.06 81.89 63.23 81.18 63.23 79.65L63.23 74.81L64.49 74.81L64.49 83L63.23 83L63.23 81.61L63.15 81.61C62.76 82.44 61.95 83.1 60.72 83.1C59.19 83.1 58.08 82.1 58.08 80.01L58.08 74.81L59.33 74.81L59.33 79.93C59.33 81.12 60.08 81.89 61.12 81.89ZM136.91 75.84C135.47 75.84 134.57 76.97 134.49 78.25L139.15 78.25C139.15 76.86 138.28 75.84 136.91 75.84ZM93.49 80.74C93.49 81.61 94.22 82.06 95.22 82.06C96.71 82.06 97.52 81.06 97.52 80.03L97.52 78.88C97.3 79.14 95.87 79.29 95.34 79.35C94.36 79.48 93.49 79.78 93.49 80.74ZM75.14 81.5L76.51 81.5L76.42 82.08C76.24 83.29 75.7 84.93 75.44 85.66L74.48 85.66C74.62 84.98 74.93 83.54 75.08 82.1L75.14 81.5ZM117.27 81.5L118.63 81.5L118.55 82.08C118.36 83.29 117.82 84.93 117.57 85.66L116.61 85.66C116.75 84.98 117.05 83.54 117.2 82.1L117.27 81.5Z" fill="#767676" fill-opacity="1.000000" fill-rule="evenodd"/>
	<rect id="Icons" width="15.000000" height="15.000000" transform="translate(0.000000 70.000000)" fill="#FFFFFF" fill-opacity="0"/>
	<rect id="Icons" width="15.000000" height="15.000000" transform="translate(0.000000 70.000000)" fill="#FFFFFF" fill-opacity="0"/>
	<rect id="Icons" width="15.000000" height="15.000000" transform="translate(0.000000 70.000000)" fill="#FFFFFF" fill-opacity="0"/>
	<rect id="Icons" width="15.000000" height="15.000000" transform="translate(0.000000 70.000000)" fill="#FFFFFF" fill-opacity="0"/>
	<rect id="Rectangle 22" x="0.500000" y="70.500000" width="9.000000" height="9.000000" stroke="#FFB400" stroke-opacity="1.000000" stroke-width="1.000000"/>
	<rect id="Rectangle 23" x="5.500000" y="75.500000" width="9.000000" height="9.000000" stroke="#FFB400" stroke-opacity="1.000000" stroke-width="1.000000"/>
	<rect id="Icons" width="15.000000" height="15.000000" transform="translate(0.000000 70.000000)" fill="#FFFFFF" fill-opacity="0"/>
	<rect id="Icons" width="15.000000" height="15.000000" transform="translate(0.000000 70.000000)" fill="#FFFFFF" fill-opacity="0"/>
	<rect id="Rectangle 22" x="0.500000" y="70.500000" width="9.000000" height="9.000000" stroke="#FFB400" stroke-opacity="1.000000" stroke-width="1.000000"/>
	<rect id="Rectangle 23" x="5.500000" y="75.500000" width="9.000000" height="9.000000" stroke="#FFB400" stroke-opacity="1.000000" stroke-width="1.000000"/>
	<path id="Gulp, Webpack, Grunt" d="M40.14 104.5L38.77 104.5C38.31 103.06 37.24 102.17 35.66 102.17C33.72 102.17 32.17 103.71 32.17 106.54C32.17 109.37 33.72 110.91 35.75 110.91C37.6 110.91 38.89 109.67 38.92 107.71L36.04 107.71L36.04 106.54L40.2 106.54L40.2 107.71C40.2 110.41 38.35 112.15 35.75 112.15C32.85 112.15 30.89 109.99 30.89 106.54C30.89 103.09 32.87 100.94 35.66 100.94C37.96 100.94 39.73 102.39 40.14 104.5ZM155.94 104.5L154.58 104.5C154.11 103.06 153.04 102.17 151.47 102.17C149.53 102.17 147.97 103.71 147.97 106.54C147.97 109.37 149.53 110.91 151.55 110.91C153.4 110.91 154.69 109.67 154.73 107.71L151.85 107.71L151.85 106.54L156 106.54L156 107.71C156 110.41 154.15 112.15 151.55 112.15C148.65 112.15 146.69 109.99 146.69 106.54C146.69 103.09 148.67 100.94 151.47 100.94C153.77 100.94 155.53 102.39 155.94 104.5ZM51 101.09L52.26 101.09L52.26 112L51 112L51 101.09ZM75.63 112L74.27 112L71.29 101.09L72.63 101.09L74.91 109.97L75.01 109.97L77.34 101.09L78.83 101.09L81.15 109.97L81.26 109.97L83.54 101.09L84.88 101.09L81.9 112L80.53 112L78.13 103.3L78.04 103.3L75.63 112ZM96.47 112L95.26 112L95.26 101.09L96.51 101.09L96.51 105.11L96.62 105.11C96.9 104.69 97.39 103.71 98.99 103.71C101.05 103.71 102.48 105.35 102.48 107.93C102.48 110.53 101.05 112.17 99.01 112.17C97.43 112.17 96.9 111.19 96.62 110.74L96.47 110.74L96.47 112ZM131.63 112L130.37 112L130.37 101.09L131.63 101.09L131.63 107.46L131.78 107.46L135.36 103.81L136.91 103.81L133.45 107.31L137.17 112L135.57 112L132.51 108.12L131.63 108.93L131.63 112ZM182.98 103.81L184.73 103.81L184.73 104.88L182.98 104.88L182.98 109.65C182.98 110.72 183.51 110.89 184.06 110.89C184.34 110.89 184.51 110.85 184.62 110.82L184.88 111.95C184.7 112.02 184.41 112.1 183.94 112.1C182.87 112.1 181.72 111.42 181.72 109.99L181.72 104.88L180.49 104.88L180.49 103.81L181.72 103.81L181.72 101.86L182.98 101.86L182.98 103.81ZM159.35 112L158.09 112L158.09 103.81L159.31 103.81L159.31 105.05L159.39 105.05C159.69 104.24 160.54 103.69 161.52 103.69C161.71 103.69 162.04 103.7 162.18 103.71L162.18 104.99C162.1 104.96 161.75 104.9 161.42 104.9C160.22 104.9 159.35 105.71 159.35 106.82L159.35 112ZM55.82 115.06L54.56 115.06L54.56 103.81L55.78 103.81L55.78 105.11L55.93 105.11C56.2 104.69 56.69 103.71 58.29 103.71C60.36 103.71 61.79 105.35 61.79 107.93C61.79 110.53 60.36 112.17 58.31 112.17C56.74 112.17 56.2 111.19 55.93 110.74L55.82 110.74L55.82 115.06ZM93.04 110.1C92.66 111.34 91.44 112.17 89.78 112.17C87.42 112.17 85.97 110.48 85.97 107.97C85.97 105.45 87.44 103.71 89.65 103.71C91.36 103.71 93.17 104.75 93.17 107.8L93.17 108.33L87.23 108.33C87.29 110.08 88.31 111.04 89.78 111.04C90.77 111.04 91.51 110.61 91.83 109.76L93.04 110.1ZM105.65 115.06L104.4 115.06L104.4 103.81L105.61 103.81L105.61 105.11L105.76 105.11C106.04 104.69 106.53 103.71 108.13 103.71C110.2 103.71 111.62 105.35 111.62 107.93C111.62 110.53 110.2 112.17 108.15 112.17C106.57 112.17 106.04 111.19 105.76 110.74L105.65 110.74L105.65 115.06ZM118.38 110.89C118.12 111.42 117.37 112.19 115.95 112.19C114.39 112.19 113.15 111.27 113.15 109.67C113.15 107.8 114.81 107.46 116.33 107.26C117.82 107.07 118.44 107.13 118.44 106.52L118.44 106.48C118.44 105.43 117.87 104.81 116.71 104.81C115.52 104.81 114.86 105.45 114.58 106.05L113.39 105.62C114.03 104.13 115.44 103.71 116.67 103.71C117.72 103.71 119.7 104 119.7 106.6L119.7 112L118.44 112L118.44 110.89L118.38 110.89ZM128.54 109.61C128.33 111.06 127.13 112.17 125.32 112.17C123.02 112.17 121.61 110.4 121.61 107.95C121.61 105.45 123.09 103.71 125.3 103.71C127.03 103.71 128.33 104.73 128.54 106.26L127.28 106.26C127.09 105.52 126.43 104.84 125.32 104.84C123.85 104.84 122.87 106.05 122.87 107.9C122.87 109.8 123.83 111.04 125.32 111.04C126.3 111.04 127.05 110.51 127.28 109.61L128.54 109.61ZM175.74 104.84C174.53 104.84 173.64 105.65 173.64 107.07L173.64 112L172.39 112L172.39 103.81L173.6 103.81L173.6 105.09L173.71 105.09C174.09 104.26 174.86 103.71 176.1 103.71C177.75 103.71 178.87 104.71 178.87 106.8L178.87 112L177.61 112L177.61 106.88C177.61 105.6 176.9 104.84 175.74 104.84ZM45.34 110.89C46.27 110.89 47.44 110.18 47.44 108.65L47.44 103.81L48.7 103.81L48.7 112L47.44 112L47.44 110.61L47.36 110.61C46.98 111.44 46.17 112.1 44.93 112.1C43.4 112.1 42.29 111.1 42.29 109.01L42.29 103.81L43.54 103.81L43.54 108.93C43.54 110.12 44.29 110.89 45.34 110.89ZM166.72 110.89C167.66 110.89 168.83 110.18 168.83 108.65L168.83 103.81L170.09 103.81L170.09 112L168.83 112L168.83 110.61L168.75 110.61C168.36 111.44 167.55 112.1 166.32 112.1C164.78 112.1 163.67 111.1 163.67 109.01L163.67 103.81L164.93 103.81L164.93 108.93C164.93 110.12 165.68 110.89 166.72 110.89ZM58.14 104.84C56.61 104.84 55.8 106.07 55.8 107.9C55.8 109.76 56.63 111.04 58.14 111.04C59.72 111.04 60.53 109.65 60.53 107.9C60.53 106.18 59.74 104.84 58.14 104.84ZM89.65 104.84C88.21 104.84 87.31 105.97 87.23 107.25L91.89 107.25C91.89 105.86 91.02 104.84 89.65 104.84ZM98.84 104.84C97.3 104.84 96.49 106.07 96.49 107.9C96.49 109.76 97.32 111.04 98.84 111.04C100.42 111.04 101.22 109.65 101.22 107.9C101.22 106.18 100.44 104.84 98.84 104.84ZM107.98 104.84C106.45 104.84 105.64 106.07 105.64 107.9C105.64 109.76 106.47 111.04 107.98 111.04C109.55 111.04 110.36 109.65 110.36 107.9C110.36 106.18 109.58 104.84 107.98 104.84ZM114.41 109.74C114.41 110.61 115.14 111.06 116.14 111.06C117.63 111.06 118.44 110.06 118.44 109.03L118.44 107.88C118.23 108.14 116.8 108.29 116.27 108.35C115.29 108.48 114.41 108.78 114.41 109.74ZM64.21 110.51L65.58 110.51L65.49 111.08C65.31 112.29 64.77 113.93 64.51 114.66L63.55 114.66C63.69 113.98 63.99 112.54 64.15 111.1L64.21 110.51ZM139.04 110.51L140.41 110.51L140.32 111.08C140.14 112.29 139.6 113.93 139.34 114.66L138.38 114.66C138.52 113.98 138.82 112.54 138.98 111.1L139.04 110.51Z" fill="#767676" fill-opacity="1.000000" fill-rule="evenodd"/>
	<rect id="Icons" width="15.000000" height="15.000000" transform="translate(0.000000 99.000000)" fill="#FFFFFF" fill-opacity="0"/>
	<rect id="Icons" width="15.000000" height="15.000000" transform="translate(0.000000 99.000000)" fill="#FFFFFF" fill-opacity="0"/>
	<rect id="Icons" width="15.000000" height="15.000000" transform="translate(0.000000 99.000000)" fill="#FFFFFF" fill-opacity="0"/>
	<rect id="Icons" width="15.000000" height="15.000000" transform="translate(0.000000 99.000000)" fill="#FFFFFF" fill-opacity="0"/>
	<rect id="Rectangle 22" x="0.500000" y="99.500000" width="9.000000" height="9.000000" stroke="#FFB400" stroke-opacity="1.000000" stroke-width="1.000000"/>
	<rect id="Rectangle 23" x="5.500000" y="104.500000" width="9.000000" height="9.000000" stroke="#FFB400" stroke-opacity="1.000000" stroke-width="1.000000"/>
	<rect id="Icons" width="15.000000" height="15.000000" transform="translate(0.000000 99.000000)" fill="#FFFFFF" fill-opacity="0"/>
	<rect id="Icons" width="15.000000" height="15.000000" transform="translate(0.000000 99.000000)" fill="#FFFFFF" fill-opacity="0"/>
	<rect id="Rectangle 22" x="0.500000" y="99.500000" width="9.000000" height="9.000000" stroke="#FFB400" stroke-opacity="1.000000" stroke-width="1.000000"/>
	<rect id="Rectangle 23" x="5.500000" y="104.500000" width="9.000000" height="9.000000" stroke="#FFB400" stroke-opacity="1.000000" stroke-width="1.000000"/>
	<path id="GIT Knowledge" d="M40.14 133.5L38.77 133.5C38.31 132.06 37.24 131.17 35.66 131.17C33.72 131.17 32.17 132.71 32.17 135.54C32.17 138.37 33.72 139.91 35.75 139.91C37.6 139.91 38.89 138.67 38.92 136.71L36.04 136.71L36.04 135.54L40.2 135.54L40.2 136.71C40.2 139.41 38.35 141.14 35.75 141.14C32.85 141.14 30.89 138.99 30.89 135.54C30.89 132.09 32.87 129.94 35.66 129.94C37.96 129.94 39.73 131.39 40.14 133.5ZM42.46 130.09L43.78 130.09L43.78 141L42.46 141L42.46 130.09ZM49.26 131.26L45.83 131.26L45.83 130.09L54.01 130.09L54.01 131.26L50.58 131.26L50.58 141L49.26 141L49.26 131.26ZM61.59 141L60.27 141L60.27 130.09L61.59 130.09L61.59 135.5L61.72 135.5L66.62 130.09L68.35 130.09L63.77 135.01L68.35 141L66.75 141L62.96 135.92L61.59 137.46L61.59 141ZM99.8 130.09L101.05 130.09L101.05 141L99.8 141L99.8 130.09ZM117.56 139.74C117.29 140.19 116.76 141.17 115.18 141.17C113.13 141.17 111.71 139.53 111.71 136.93C111.71 134.35 113.13 132.71 115.2 132.71C116.8 132.71 117.29 133.69 117.56 134.11L117.67 134.11L117.67 130.09L118.93 130.09L118.93 141L117.72 141L117.72 139.74L117.56 139.74ZM73.23 133.84C72.02 133.84 71.14 134.64 71.14 136.07L71.14 141L69.88 141L69.88 132.81L71.1 132.81L71.1 134.09L71.2 134.09C71.59 133.26 72.35 132.71 73.59 132.71C75.25 132.71 76.36 133.71 76.36 135.8L76.36 141L75.1 141L75.1 135.88C75.1 134.6 74.39 133.84 73.23 133.84ZM85.69 136.95C85.69 139.48 84.2 141.17 81.98 141.17C79.77 141.17 78.27 139.48 78.27 136.95C78.27 134.39 79.77 132.71 81.98 132.71C84.2 132.71 85.69 134.39 85.69 136.95ZM110.04 139.1C109.66 140.34 108.45 141.17 106.79 141.17C104.42 141.17 102.97 139.48 102.97 136.97C102.97 134.45 104.44 132.71 106.66 132.71C108.36 132.71 110.17 133.75 110.17 136.8L110.17 137.33L104.23 137.33C104.29 139.08 105.31 140.04 106.79 140.04C107.77 140.04 108.51 139.61 108.83 138.76L110.04 139.1ZM128.24 141.23C128.24 143.34 126.66 144.23 124.7 144.23C122.88 144.23 121.87 143.45 121.36 142.59L122.36 141.89C122.7 142.34 123.22 143.13 124.7 143.13C126.03 143.13 126.99 142.51 126.99 141.14L126.99 139.48L126.88 139.48C126.6 139.93 126.09 140.87 124.49 140.87C122.51 140.87 121.02 139.42 121.02 136.86C121.02 134.35 122.44 132.71 124.51 132.71C126.11 132.71 126.62 133.69 126.9 134.11L127.03 134.11L127.03 132.81L128.24 132.81L128.24 141.23ZM137.23 139.1C136.85 140.34 135.64 141.17 133.97 141.17C131.61 141.17 130.16 139.48 130.16 136.97C130.16 134.45 131.63 132.71 133.84 132.71C135.55 132.71 137.36 133.75 137.36 136.8L137.36 137.33L131.42 137.33C131.48 139.08 132.5 140.04 133.97 140.04C134.96 140.04 135.7 139.61 136.02 138.76L137.23 139.1ZM90.7 141L89.46 141L86.97 132.81L88.29 132.81L90.06 139.08L90.15 139.08L91.89 132.81L93.23 132.81L94.96 139.06L95.05 139.06L96.81 132.81L98.13 132.81L95.64 141L94.4 141L92.61 134.71L92.49 134.71L90.7 141ZM79.53 136.95C79.53 138.59 80.3 140.04 81.98 140.04C83.67 140.04 84.43 138.59 84.43 136.95C84.43 135.31 83.67 133.84 81.98 133.84C80.3 133.84 79.53 135.31 79.53 136.95ZM106.66 133.84C105.22 133.84 104.32 134.97 104.23 136.25L108.89 136.25C108.89 134.86 108.02 133.84 106.66 133.84ZM112.97 136.9C112.97 138.65 113.77 140.04 115.35 140.04C116.86 140.04 117.69 138.76 117.69 136.9C117.69 135.07 116.88 133.84 115.35 133.84C113.75 133.84 112.97 135.18 112.97 136.9ZM122.28 136.84C122.28 138.55 123.09 139.74 124.66 139.74C126.17 139.74 127 138.65 127 136.84C127 135.07 126.19 133.84 124.66 133.84C123.06 133.84 122.28 135.18 122.28 136.84ZM133.84 133.84C132.41 133.84 131.5 134.97 131.42 136.25L136.08 136.25C136.08 134.86 135.21 133.84 133.84 133.84Z" fill="#767676" fill-opacity="1.000000" fill-rule="evenodd"/>
	<rect id="Icons" width="15.000000" height="15.000000" transform="translate(0.000000 128.000000)" fill="#FFFFFF" fill-opacity="0"/>
	<rect id="Icons" width="15.000000" height="15.000000" transform="translate(0.000000 128.000000)" fill="#FFFFFF" fill-opacity="0"/>
	<rect id="Icons" width="15.000000" height="15.000000" transform="translate(0.000000 128.000000)" fill="#FFFFFF" fill-opacity="0"/>
	<rect id="Icons" width="15.000000" height="15.000000" transform="translate(0.000000 128.000000)" fill="#FFFFFF" fill-opacity="0"/>
	<rect id="Rectangle 22" x="0.500000" y="128.500000" width="9.000000" height="9.000000" stroke="#FFB400" stroke-opacity="1.000000" stroke-width="1.000000"/>
	<rect id="Rectangle 23" x="5.500000" y="133.500000" width="9.000000" height="9.000000" stroke="#FFB400" stroke-opacity="1.000000" stroke-width="1.000000"/>
	<rect id="Icons" width="15.000000" height="15.000000" transform="translate(0.000000 128.000000)" fill="#FFFFFF" fill-opacity="0"/>
	<rect id="Icons" width="15.000000" height="15.000000" transform="translate(0.000000 128.000000)" fill="#FFFFFF" fill-opacity="0"/>
	<rect id="Rectangle 22" x="0.500000" y="128.500000" width="9.000000" height="9.000000" stroke="#FFB400" stroke-opacity="1.000000" stroke-width="1.000000"/>
	<rect id="Rectangle 23" x="5.500000" y="133.500000" width="9.000000" height="9.000000" stroke="#FFB400" stroke-opacity="1.000000" stroke-width="1.000000"/>
</svg>
