<svg width="67.699219" height="8.765625" viewBox="0 0 67.6992 8.76562" fill="none" xmlns="http://www.w3.org/2000/svg" xmlns:xlink="http://www.w3.org/1999/xlink">
	<desc>
			Created with Pixso.
	</desc>
	<defs/>
	<path id="ORDER NOW" d="M6.82 6.78Q7.26 5.83 7.26 4.57L7.26 4.19Q7.26 2.94 6.81 1.98Q6.46 1.25 5.91 0.78Q5.73 0.63 5.52 0.51Q5.35 0.4 5.17 0.32Q4.47 0 3.63 0Q2.78 0 2.09 0.32Q1.9 0.4 1.73 0.51Q1.53 0.63 1.35 0.78Q0.79 1.25 0.45 1.98Q0 2.94 0 4.2L0 4.62Q0 5.85 0.46 6.79Q0.79 7.49 1.32 7.94Q1.52 8.11 1.75 8.25Q1.93 8.36 2.13 8.45Q2.82 8.76 3.64 8.76Q4.5 8.76 5.2 8.43Q5.38 8.35 5.54 8.25Q5.77 8.1 5.98 7.92Q6.5 7.46 6.82 6.78ZM56.43 6.78Q56.87 5.83 56.87 4.57L56.87 4.19Q56.87 2.94 56.42 1.98Q56.07 1.25 55.52 0.78Q55.34 0.63 55.13 0.51Q54.96 0.4 54.78 0.32Q54.08 0 53.24 0Q52.39 0 51.7 0.32Q51.52 0.4 51.34 0.51Q51.14 0.63 50.96 0.78Q50.4 1.25 50.06 1.98Q49.61 2.94 49.61 4.2L49.61 4.62Q49.61 5.85 50.07 6.79Q50.4 7.49 50.94 7.94Q51.13 8.11 51.36 8.25Q51.54 8.36 51.74 8.45Q52.43 8.76 53.25 8.76Q54.11 8.76 54.81 8.43Q54.99 8.35 55.15 8.25Q55.39 8.1 55.59 7.92Q56.11 7.46 56.43 6.78ZM10.3 5.52L11.7 5.52L13.3 8.64L15.18 8.64L15.18 8.56L13.34 5.08Q14.1 4.73 14.48 4.15Q14.86 3.56 14.86 2.69Q14.86 1.83 14.46 1.25Q14.29 0.99 14.04 0.79Q13.22 0.11 11.71 0.11L8.54 0.11L8.54 8.64L10.3 8.64L10.3 5.52ZM16.2 0.11L16.2 8.64L18.84 8.64Q19.76 8.64 20.53 8.29Q20.69 8.22 20.85 8.13Q21.24 7.91 21.55 7.61Q21.95 7.22 22.23 6.69Q22.72 5.77 22.72 4.58L22.72 4.18Q22.72 3.03 22.25 2.12Q22.24 2.09 22.22 2.06Q21.91 1.49 21.46 1.07Q21.18 0.81 20.83 0.62Q20.7 0.54 20.57 0.48Q19.78 0.11 18.82 0.11L16.2 0.11ZM25.75 4.95L29.13 4.95L29.13 3.57L25.75 3.57L25.75 1.54L29.7 1.54L29.7 0.11L24 0.11L24 8.64L29.71 8.64L29.71 7.23L25.75 7.23L25.75 4.95ZM32.5 5.52L33.9 5.52L35.5 8.64L37.39 8.64L37.39 8.56L35.54 5.08Q36.31 4.73 36.69 4.15Q37.07 3.56 37.07 2.69Q37.07 1.83 36.67 1.25Q36.5 0.99 36.25 0.79Q35.43 0.11 33.91 0.11L30.75 0.11L30.75 8.64L32.5 8.64L32.5 5.52ZM46.57 8.64L48.33 8.64L48.33 0.11L46.58 0.11L46.58 5.74L43.15 0.11L41.39 0.11L41.39 8.64L43.15 8.64L43.15 3.03L46.57 8.64ZM65.94 0.11L64.79 6.18L63.39 0.11L61.91 0.11L60.5 6.17L59.34 0.11L57.59 0.11L59.49 8.64L61.25 8.64L62.64 2.94L64.03 8.64L65.8 8.64L67.69 0.11L65.94 0.11ZM5 2.15Q5.48 2.84 5.48 4.18L5.48 4.6Q5.47 5.93 5 6.62Q4.79 6.93 4.5 7.1Q4.13 7.32 3.64 7.32Q3.15 7.32 2.78 7.1Q2.47 6.93 2.26 6.6Q1.78 5.88 1.78 4.57L1.78 4.16Q1.78 2.83 2.26 2.14Q2.47 1.83 2.76 1.66Q3.13 1.45 3.63 1.45Q4.12 1.45 4.49 1.67Q4.79 1.84 5 2.15ZM54.61 2.15Q55.09 2.84 55.09 4.18L55.09 4.6Q55.08 5.93 54.61 6.62Q54.4 6.93 54.11 7.1Q53.74 7.32 53.25 7.32Q52.76 7.32 52.39 7.1Q52.09 6.93 51.87 6.6Q51.39 5.88 51.39 4.57L51.39 4.16Q51.39 2.83 51.87 2.14Q52.08 1.83 52.37 1.66Q52.74 1.45 53.24 1.45Q53.74 1.45 54.11 1.67Q54.4 1.84 54.61 2.15ZM11.71 4.1L10.3 4.1L10.3 1.54L11.71 1.54Q12.42 1.54 12.76 1.88Q12.81 1.94 12.86 1.99Q13.1 2.32 13.1 2.83Q13.1 3.28 12.89 3.59Q12.82 3.68 12.74 3.76Q12.73 3.77 12.72 3.78Q12.36 4.1 11.71 4.1ZM17.95 7.23L17.95 1.54L18.82 1.54Q19.59 1.54 20.08 1.9Q20.26 2.03 20.4 2.21Q20.94 2.88 20.94 4.18L20.94 4.63Q20.92 5.88 20.38 6.56Q20.23 6.74 20.04 6.88Q19.55 7.23 18.8 7.23L17.95 7.23ZM33.92 4.1L32.5 4.1L32.5 1.54L33.91 1.54Q34.62 1.54 34.97 1.88Q35.02 1.94 35.06 1.99Q35.31 2.32 35.31 2.83Q35.31 3.28 35.1 3.59Q35.03 3.68 34.95 3.76Q34.94 3.77 34.93 3.78Q34.57 4.1 33.92 4.1Z" fill="#FFB400" fill-opacity="1.000000" fill-rule="evenodd"/>
</svg>
